<?xml version="1.0" encoding="utf-8"?>
<!-- Generator: Adobe Illustrator 19.1.0, SVG Export Plug-In . SVG Version: 6.00 Build 0)  -->
<svg version="1.1" id="letter" xmlns="http://www.w3.org/2000/svg" xmlns:xlink="http://www.w3.org/1999/xlink" x="0px" y="0px"
	 viewBox="0 0 262.3 73.7" style="enable-background:new 0 0 262.3 73.7;" xml:space="preserve">
<style type="text/css">
	.st0{fill:#C25B45;}
	.st1{opacity:0.4;fill:#6A3832;}
	.st2{opacity:0.2;fill:#6A3832;}
	.st3{fill:none;}
	.st4{opacity:0.4;}
	.st5{fill:#6A3832;}
</style>
<path class="st0" d="M85.9,59.7c0.5,0.2,1,0.3,1.6,0.3c0.5,0,1,0.1,1.6,0.1c1.3,0,2.6-0.2,3.8-0.5c1.2-0.4,2.3-0.9,3.4-1.5
	c1.1-0.7,2-1.5,2.8-2.4c0.8-1,1.5-2,2-3.2l9.8,9.8c-1.2,1.8-2.7,3.3-4.3,4.7c-1.6,1.4-3.4,2.6-5.2,3.6c-1.9,1-3.8,1.7-5.9,2.2
	c-2.1,0.5-4.2,0.8-6.4,0.8c-3.7,0-7.1-0.7-10.4-2.1c-3.2-1.4-6.1-3.3-8.5-5.7c-2.4-2.4-4.3-5.3-5.7-8.7c-1.4-3.4-2.1-7.1-2.1-11.1
	c0-4.1,0.7-7.9,2.1-11.3c1.4-3.4,3.3-6.3,5.7-8.7c2.4-2.4,5.3-4.3,8.5-5.6c3.2-1.3,6.7-2,10.4-2c2.2,0,4.3,0.3,6.4,0.8
	c2.1,0.5,4.1,1.3,5.9,2.2c1.9,1,3.6,2.2,5.2,3.6c1.6,1.4,3.1,3,4.3,4.8L85.9,59.7z M93.7,31.2c-0.6-0.2-1.2-0.4-1.8-0.4
	c-0.6-0.1-1.2-0.1-1.9-0.1c-1.8,0-3.5,0.3-5.2,1c-1.6,0.7-3,1.6-4.2,2.9c-1.2,1.2-2.1,2.7-2.8,4.5c-0.7,1.7-1,3.7-1,5.9
	c0,0.5,0,1,0.1,1.7c0,0.6,0.1,1.2,0.2,1.9c0.1,0.6,0.3,1.2,0.4,1.8c0.2,0.6,0.4,1.1,0.6,1.6L93.7,31.2z"/>
<path class="st1" d="M68.3,41.6L68.3,41.6l0-1.3l0,0V27.9c-1.5,2-2.8,4.2-3.9,6.6C63,38,62.3,41.8,62.3,46c0,4.1,0.9,7.9,2.3,11.3
	c1.4,3.4,3.5,6.2,5.9,8.6c0.4,0.5,0.9,0.9,1.4,1.3c4.8,4,10.9,6.1,17.6,6.1c7.1,0,12.9-2.7,17.9-7.2c0.8-0.7,1.4-1.5,2.1-2.3
	C105.4,66.2,101,68,96,68C81.1,68,69,56.3,68.3,41.6z"/>
<path class="st0" d="M114.8,45.8c0,0.1,0,0.1,0,0.2c0-1.4,0.1-2.8,0.2-4.1C114.9,43.2,114.8,44.5,114.8,45.8z"/>
<path class="st0" d="M115,41.7c0-0.3,0.1-0.5,0.1-0.8C115.1,41.2,115.1,41.5,115,41.7z"/>
<path class="st0" d="M118.2,60.2c-0.1-0.2-0.2-0.5-0.4-0.7C117.9,59.7,118,60,118.2,60.2z"/>
<path class="st0" d="M115.6,53.5C115.6,53.5,115.6,53.5,115.6,53.5C115.6,53.5,115.6,53.5,115.6,53.5z"/>
<path class="st0" d="M116.9,34.6c0,0.1-0.1,0.2-0.1,0.2c0.1-0.2,0.1-0.3,0.2-0.5C117,34.5,116.9,34.5,116.9,34.6z"/>
<path class="st0" d="M122.5,66c0.1,0.1,0.1,0.1,0.2,0.2c0.1,0.1,0.2,0.2,0.4,0.3c-0.1-0.1-0.2-0.2-0.4-0.3
	C122.6,66.1,122.5,66.1,122.5,66z"/>
<path class="st0" d="M115.7,53.7c0.3,1.3,0.7,2.6,1.2,3.8c0.1,0.3,0.3,0.5,0.4,0.8c-0.1-0.3-0.3-0.6-0.4-0.9
	C116.4,56.2,116,55,115.7,53.7z"/>
<path class="st0" d="M117.8,32.7c0.1-0.3,0.3-0.6,0.4-0.8C118.1,32.1,117.9,32.4,117.8,32.7z"/>
<path class="st2" d="M114.8,46.3c0,2.5,0.3,4.9,0.8,7.1c-0.5-2.3-0.8-4.8-0.8-7.4C114.8,46.2,114.8,46.2,114.8,46.3z"/>
<path class="st2" d="M117,34.4c0.2-0.6,0.5-1.1,0.8-1.7C117.5,33.2,117.3,33.8,117,34.4z"/>
<path class="st2" d="M116.7,35c-0.8,1.9-1.3,3.9-1.6,5.9c0.3-2.2,0.9-4.2,1.7-6.1C116.8,34.9,116.7,35,116.7,35z"/>
<path class="st2" d="M120.7,27.9c-0.9,1.1-1.7,2.5-2.5,3.9c0.7-1.4,1.6-2.6,2.5-3.8V27.9z"/>
<path class="st2" d="M115,42c0-0.1,0-0.2,0-0.2C115,41.8,115,41.9,115,42z"/>
<path class="st2" d="M117.8,59.5c-0.2-0.4-0.4-0.8-0.5-1.2C117.4,58.7,117.6,59.1,117.8,59.5z"/>
<path class="st2" d="M122.5,66c-1.7-1.7-3.1-3.6-4.3-5.8C119.3,62.4,120.7,64.3,122.5,66z"/>
<path class="st2" d="M115.7,53.7c0-0.1,0-0.2-0.1-0.3C115.6,53.5,115.7,53.6,115.7,53.7z"/>
<path class="st0" d="M0,44.7L0,44.7L0,46h0c0.7,14.6,12.7,26.2,27.5,26.2C42.7,72.2,55,59.9,55,44.7c0-15.2-12.3-27.5-27.5-27.5
	c-4.5,0-8.7,1.1-12.5,3V8.4c0-4.1-3.4-7.5-7.5-7.5C3.4,0.9,0,4.2,0,8.4V44.7z M15,44.7c0-6.9,5.6-12.5,12.5-12.5S40,37.8,40,44.7
	c0,6.9-5.6,12.5-12.5,12.5c-6.5,0-11.8-4.9-12.4-11.2v0c0-0.2,0-0.4-0.1-0.6c0,0,0,0,0,0C15,45.1,15,44.9,15,44.7z"/>
<path class="st1" d="M34.3,66.6C19.5,66.6,7.5,55,6.8,40.4h0v-1.3l0,0V2.8c0-0.7,0.1-1.3,0.3-1.9C3.1,1.2,0,4.4,0,8.4v36.3l0,0V46h0
	c0.7,14.6,12.7,26.2,27.5,26.2c8.2,0,15.6-3.6,20.6-9.4C44.1,65.2,39.3,66.6,34.3,66.6z"/>
<path class="st2" d="M19.3,18.4v16.8c-2.6,2.3-4.3,5.7-4.3,9.4V20.2C16.4,19.5,17.8,18.9,19.3,18.4z"/>
<path class="st0" d="M207.1,34.2V20.9h-11.5V7.4c-0.3-3.9-3.5-6.9-7.5-6.9c-4.1,0-7.5,3.4-7.5,7.5l0,0v12.9h-6.5v13.3h6.5v15.5
	c0,3.2,0.6,6.3,1.8,9.1c1.2,2.8,2.9,5.3,5,7.4c2.1,2.1,4.6,3.8,7.4,5c2.8,1.2,5.9,1.8,9.1,1.8h6.1V57.8h-4.4c-1.4,0-2.7-0.3-4-0.8
	c-1.2-0.5-2.3-1.3-3.2-2.2c-0.9-0.9-1.6-2-2.1-3.2c-0.5-1.2-0.8-2.5-0.8-3.9V34.2H207.1z"/>
<path class="st1" d="M210.1,72.1c-12.5-2.2-22.2-12.8-22.8-25.8h0V45l0,0V0.6c-3.7,0.4-6.7,3.6-6.7,7.5l0,0v12.9h-6.5v13.3h6.5v15.3
	l0,0.2c0,3.2,0.6,6.2,1.8,9.1c1.2,2.8,2.9,5.3,5,7.4c2.1,2.1,4.6,3.8,7.4,5c2.8,1.2,5.9,1.8,9.1,1.8h6.1V72.1z"/>
<path class="st3" d="M204,73.1c-3.2,0-6.3-0.6-9.1-1.8c-2.8-1.2-5.3-2.9-7.4-5c-2.1-2.1-3.8-4.6-5-7.4c-1.2-2.8-1.8-5.9-1.8-9.1
	V34.2h-6.5V20.9h6.5V0h15v20.9h11.5v13.3h-11.5v13.5c0,1.4,0.3,2.7,0.8,3.9c0.5,1.2,1.2,2.3,2.1,3.2c0.9,0.9,2,1.6,3.2,2.2
	c1.2,0.5,2.6,0.8,4,0.8h4.4v15.3H204z"/>
<path class="st0" d="M168.2,53.2c0-17.2-6-24.6-8.3-26.8l0,0c-0.3-0.3-0.6-0.5-0.8-0.7c0,0,0,0,0,0l0,0c-1-0.9-2-1.7-3.1-2.5
	c-1.4-1-2.9-1.9-4.5-2.6c-1.6-0.7-3.2-1.3-4.8-1.8c-1.7-0.4-3.3-0.6-5-0.6c-3.7,0-7.1,0.7-10.4,2c-3.2,1.4-6.1,3.2-8.5,5.7
	c-2.4,2.4-4.3,5.4-5.7,8.8c-1.4,3.4-2.1,7.1-2.1,11.2c0,4.4,0.7,8.3,2.1,11.7c1.4,3.4,3.3,6.3,5.7,8.7c2.4,2.4,5.3,4.2,8.5,5.4
	c3.2,1.2,6.7,1.9,10.4,1.9c1.7,0,3.4-0.2,5-0.6c1.6-0.4,3.2-1,4.8-1.7s3.1-1.6,4.5-2.6c1.4-1,2.8-2.1,4-3.2l5.2,7.2h3.2L168.2,53.2
	L168.2,53.2z M152.7,50.7c-0.6,1.6-1.5,3-2.6,4.2c-1.1,1.2-2.4,2.2-3.9,2.9c-1.5,0.7-3.1,1.1-4.7,1.1c-1.7,0-3.3-0.3-4.7-0.9
	c-1.5-0.6-2.8-1.4-3.9-2.5c-1.1-1.1-2-2.5-2.6-4.1c-0.6-1.6-0.9-3.5-0.9-5.6c0-2.1,0.3-4,0.9-5.6c0.6-1.6,1.5-3,2.6-4.1
	c1.1-1.1,2.4-1.9,3.9-2.5c1.5-0.6,3.1-0.9,4.7-0.9c1.7,0,3.3,0.4,4.7,1.1c1.5,0.7,2.8,1.7,3.9,2.9c1.1,1.2,2,2.6,2.6,4.2
	c0.6,1.6,1,3.2,1,4.9C153.7,47.5,153.4,49.1,152.7,50.7z"/>
<path class="st0" d="M125.3,68.4c-0.4-0.3-0.7-0.5-1-0.8C124.6,67.9,125,68.2,125.3,68.4z"/>
<path class="st0" d="M129.6,70.9c-0.5-0.2-1.1-0.5-1.6-0.8C128.5,70.4,129.1,70.7,129.6,70.9z"/>
<path class="st0" d="M127.5,69.8c-0.5-0.3-1-0.6-1.5-0.9C126.5,69.3,127,69.5,127.5,69.8z"/>
<path class="st0" d="M141.5,73.4c-0.8,0-1.6,0-2.4-0.1C139.9,73.4,140.7,73.4,141.5,73.4z"/>
<path class="st0" d="M143,73.4c-0.5,0-1,0.1-1.5,0.1C142,73.4,142.5,73.4,143,73.4z"/>
<path class="st0" d="M131.1,71.6c2.5,1,5.1,1.5,7.9,1.8c-3.1-0.3-6.1-1-8.8-2.1C130.5,71.3,130.8,71.4,131.1,71.6z"/>
<path class="st2" d="M130.2,71.2c-0.2-0.1-0.4-0.2-0.6-0.3C129.8,71,130,71.1,130.2,71.2z"/>
<path class="st2" d="M126.1,68.9c-0.3-0.2-0.5-0.3-0.7-0.5C125.6,68.6,125.8,68.8,126.1,68.9z"/>
<path class="st2" d="M128,70.1c-0.2-0.1-0.3-0.2-0.5-0.3C127.7,69.9,127.9,70,128,70.1z"/>
<path class="st2" d="M139.1,73.3c0,0-0.1,0-0.1,0C139,73.3,139.1,73.3,139.1,73.3z"/>
<path class="st2" d="M124,67.4c0.1,0.1,0.2,0.1,0.3,0.2c-0.4-0.4-0.9-0.7-1.3-1.1C123.3,66.8,123.7,67.1,124,67.4z"/>
<path class="st0" d="M148.2,68.1c-14.7,0-26.8-11.6-27.5-26.2h0v-1.3l0,0V28.1c-0.9,1.2-1.7,2.4-2.5,3.8c-0.1,0.3-0.3,0.6-0.4,0.8
	c-0.3,0.5-0.5,1.1-0.8,1.7c-0.1,0.2-0.1,0.3-0.2,0.5c-0.8,1.9-1.3,4-1.7,6.1c0,0.3-0.1,0.5-0.1,0.8c0,0.1,0,0.2,0,0.2
	c-0.1,1.3-0.2,2.7-0.2,4.1c0,2.6,0.3,5.1,0.8,7.4c0,0,0,0,0,0c0,0.1,0,0.2,0.1,0.3c0.3,1.3,0.7,2.5,1.2,3.7c0.1,0.3,0.2,0.6,0.4,0.9
	c0.2,0.4,0.4,0.8,0.5,1.2c0.1,0.2,0.2,0.5,0.4,0.7c1.2,2.2,2.6,4.1,4.3,5.8c0.1,0.1,0.1,0.1,0.2,0.2c0.1,0.1,0.2,0.2,0.4,0.3
	c0.4,0.4,0.8,0.8,1.3,1.1c0.3,0.3,0.7,0.5,1,0.8c0.2,0.2,0.5,0.4,0.7,0.5c0.5,0.3,1,0.6,1.5,0.9c0.2,0.1,0.3,0.2,0.5,0.3
	c0.5,0.3,1,0.5,1.6,0.8c0.2,0.1,0.4,0.2,0.6,0.3c2.7,1.2,5.7,1.9,8.8,2.1c0,0,0.1,0,0.1,0c0.8,0.1,1.6,0.1,2.4,0.1
	c0.5,0,1,0,1.5-0.1c1.2-0.1,2.3-0.3,3.5-0.6c1.6-0.4,3.2-1,4.8-1.7s3.1-1.6,4.5-2.6c1.4-1,2.8-2.1,4-3.2l0.5,0.7
	c0.5-0.6,1-1.4,1.5-2C157.8,66.4,153.2,68.1,148.2,68.1z"/>
<path class="st1" d="M148.2,68.1c-14.7,0-26.8-11.6-27.5-26.2h0v-1.3l0,0V28.1c-0.9,1.2-1.7,2.4-2.5,3.8c-0.1,0.3-0.3,0.6-0.4,0.8
	c-0.3,0.5-0.5,1.1-0.8,1.7c-0.1,0.2-0.1,0.3-0.2,0.5c-0.8,1.9-1.3,4-1.7,6.1c0,0.3-0.1,0.5-0.1,0.8c0,0.1,0,0.2,0,0.2
	c-0.1,1.3-0.2,2.7-0.2,4.1c0,2.6,0.3,5.1,0.8,7.4c0,0,0,0,0,0c0,0.1,0,0.2,0.1,0.3c0.3,1.3,0.7,2.5,1.2,3.7c0.1,0.3,0.2,0.6,0.4,0.9
	c0.2,0.4,0.4,0.8,0.5,1.2c0.1,0.2,0.2,0.5,0.4,0.7c1.2,2.2,2.6,4.1,4.3,5.8c0.1,0.1,0.1,0.1,0.2,0.2c0.1,0.1,0.2,0.2,0.4,0.3
	c0.4,0.4,0.8,0.8,1.3,1.1c0.3,0.3,0.7,0.5,1,0.8c0.2,0.2,0.5,0.4,0.7,0.5c0.5,0.3,1,0.6,1.5,0.9c0.2,0.1,0.3,0.2,0.5,0.3
	c0.5,0.3,1,0.5,1.6,0.8c0.2,0.1,0.4,0.2,0.6,0.3c2.7,1.2,5.7,1.9,8.8,2.1c0,0,0.1,0,0.1,0c0.8,0.1,1.6,0.1,2.4,0.1
	c0.5,0,1,0,1.5-0.1c1.2-0.1,2.3-0.3,3.5-0.6c1.6-0.4,3.2-1,4.8-1.7s3.1-1.6,4.5-2.6c1.4-1,2.8-2.1,4-3.2l0.5,0.7c0,0,0,0,0,0
	l-0.6-0.8C156.2,66.9,152.3,68.1,148.2,68.1z"/>
<g>
	<path class="st0" d="M262.3,72.4h-43.6l20.1-38.3h-20.1V20.9h43.6l-19,38.3h19V72.4z"/>
	<path class="st0" d="M273.2-4"/>
	<g class="st4">
		<rect x="218.7" y="20.9" class="st5" width="6.8" height="13.3"/>
		<path class="st5" d="M227.8,55.9l-9.1,16.5h31.6l-2-0.3C239.1,70.5,231.5,64.3,227.8,55.9z"/>
	</g>
</g>
</svg>
